<svg width="14" height="14" viewBox="0 0 14 14" xmlns="http://www.w3.org/2000/svg">
<path d="M7 9.45C6.35022 9.45 5.72705 9.19188 5.26759 8.73241C4.80813 8.27295 4.55 7.64978 4.55 7C4.55 6.35022 4.80813 5.72705 5.26759 5.26759C5.72705 4.80812 6.35022 4.55 7 4.55C7.64978 4.55 8.27295 4.80812 8.73241 5.26759C9.19188 5.72705 9.45 6.35022 9.45 7C9.45 7.64978 9.19188 8.27295 8.73241 8.73241C8.27295 9.19188 7.64978 9.45 7 9.45ZM12.201 7.679C12.229 7.455 12.25 7.231 12.25 7C12.25 6.769 12.229 6.538 12.201 6.3L13.678 5.159C13.811 5.054 13.846 4.865 13.762 4.711L12.362 2.289C12.278 2.135 12.089 2.072 11.935 2.135L10.192 2.835C9.828 2.562 9.45 2.324 9.009 2.149L8.75 0.294C8.722 0.126 8.575 0 8.4 0H5.6C5.425 0 5.278 0.126 5.25 0.294L4.991 2.149C4.55 2.324 4.172 2.562 3.808 2.835L2.065 2.135C1.911 2.072 1.722 2.135 1.638 2.289L0.238 4.711C0.147 4.865 0.189001 5.054 0.322001 5.159L1.799 6.3C1.771 6.538 1.75 6.769 1.75 7C1.75 7.231 1.771 7.455 1.799 7.679L0.322001 8.841C0.189001 8.946 0.147 9.135 0.238 9.289L1.638 11.711C1.722 11.865 1.911 11.921 2.065 11.865L3.808 11.158C4.172 11.438 4.55 11.676 4.991 11.851L5.25 13.706C5.278 13.874 5.425 14 5.6 14H8.4C8.575 14 8.722 13.874 8.75 13.706L9.009 11.851C9.45 11.669 9.828 11.438 10.192 11.158L11.935 11.865C12.089 11.921 12.278 11.865 12.362 11.711L13.762 9.289C13.846 9.135 13.811 8.946 13.678 8.841L12.201 7.679Z"/>
</svg>
